PathFileType	4	(X/Y/Z)	c:\Git\powerlifing_model_clean\simulations\HC835B\Session1\HC835B_OGR_0005\marker_experimental.trc
DataRate	CameraRate	NumFrames	NumMarkers	Units	OrigDataRate	OrigDataStartFrame	OrigNumFrames
240.000000	240.000000	5	38	mm	240.000000	136	218
Frame#	Time	RPSI			LPSI			RASI			LASI			RTH1			RTH2			RTH3			RTH4			RSK1			RSK2			RSK3			RSK4			RCAL1			RCAL2			RCAL3			RST			RPT			RTN			RFMB			RSMB			RVMB			RFMH			RSMH			RVMH			RPM			LTH1			LTH2			LTH3			LTH4			LSK1			LSK2			LSK3			LSK4			LCAL1			LCAL2			LCAL3			LFMH			LVMH			
		X1	Y1	Z1	X2	Y2	Z2	X3	Y3	Z3	X4	Y4	Z4	X5	Y5	Z5	X6	Y6	Z6	X7	Y7	Z7	X8	Y8	Z8	X9	Y9	Z9	X10	Y10	Z10	X11	Y11	Z11	X12	Y12	Z12	X13	Y13	Z13	X14	Y14	Z14	X15	Y15	Z15	X16	Y16	Z16	X17	Y17	Z17	X18	Y18	Z18	X19	Y19	Z19	X20	Y20	Z20	X21	Y21	Z21	X22	Y22	Z22	X23	Y23	Z23	X24	Y24	Z24	X25	Y25	Z25	X26	Y26	Z26	X27	Y27	Z27	X28	Y28	Z28	X29	Y29	Z29	X30	Y30	Z30	X31	Y31	Z31	X32	Y32	Z32	X33	Y33	Z33	X34	Y34	Z34	X35	Y35	Z35	X36	Y36	Z36	X37	Y37	Z37	X38	Y38	Z38	

137	0.5666666666666667	525.6396484375001	1087.673095703125	-1587.486450195313	419.9216308593751	1098.283325195313	-1587.368408203125	582.0670166015626	1009.947143554688	-1789.414428710938	327.3674926757813	1015.402221679688	-1775.692260742188	658.3125000000001	754.8722534179689	-1786.044067382813	643.1251831054689	757.2495117187501	-1844.886352539063	649.9700317382814	680.9933471679689	-1826.83642578125	624.9326171875001	681.6680908203126	-1879.992797851563	623.2260131835939	535.4632568359376	-1577.021484375	622.7704467773439	474.0215759277345	-1572.351440429688	619.5540161132814	511.0422668457032	-1524.010131835938	606.7576293945314	452.4885559082032	-1519.973876953125	561.9776000976564	551.3718872070314	-1388.192260742188	523.0161743164064	547.7971801757814	-1357.947387695313	586.0148925781251	553.0606079101564	-1345.635375976563	515.5537109375001	476.7703552246095	-1366.60546875	612.5094604492189	493.8756713867189	-1344.649291992188	533.6192016601564	420.2777404785157	-1376.412353515625	532.0110473632814	392.1353454589845	-1353.335815429688	585.3663330078126	380.7476501464844	-1367.1484375	618.1993408203126	453.5635681152345	-1311.781372070313	524.1564941406251	342.4574890136719	-1315.829833984375	579.6727905273439	328.9077758789063	-1320.091186523438	631.2002563476564	377.5857543945313	-1289.643188476563	570.6428222656251	274.2633972167969	-1309.885009765625	270.1754760742188	754.0816650390626	-1724.910400390625	265.4899902343751	751.2229614257814	-1785.402099609375	276.8369750976563	675.3401489257814	-1758.993530273438	288.1733703613282	675.0551147460939	-1820.020385742188	353.9386901855469	273.7413635253907	-1629.552001953125	355.4406127929688	237.418685913086	-1668.572875976563	364.9704284667969	218.3534240722657	-1624.086669921875	382.2353515625001	185.510726928711	-1667.597900390625	441.3919677734376	97.43974304199222	-1508.337768554688	410.340545654297	60.71940994262697	-1504.490600585938	468.6351013183595	58.36951828002931	-1508.41455078125	475.4068603515626	50.69455337524415	-1733.831298828125	368.7264709472657	29.45531845092774	-1691.23388671875	
138	0.5708333333333333	525.9284667968751	1089.513793945313	-1601.41845703125	420.2030334472657	1099.927734375	-1601.171875	582.5711669921876	1013.163269042969	-1803.159057617188	328.4534606933594	1016.905151367188	-1790.388793945313	658.6276855468751	758.7202758789064	-1803.526489257813	643.5979614257814	762.2719726562501	-1862.39111328125	650.6712646484376	685.7060546875001	-1845.796630859375	625.6478881835939	687.3099365234376	-1898.932373046875	623.4761962890626	533.8020629882814	-1598.787963867188	622.7180786132814	472.2813415527345	-1595.48681640625	619.6061401367189	508.2410278320314	-1546.309326171875	606.4078979492189	449.6152648925782	-1543.60009765625	561.6500854492189	545.7066040039064	-1409.092041015625	522.6925659179689	541.3378906250001	-1378.928466796875	585.7863159179689	546.2029418945314	-1366.522216796875	515.1488647460939	470.6716613769532	-1389.535522460938	612.0942382812501	486.881561279297	-1367.249389648438	533.1161499023439	414.3726196289064	-1401.063110351563	531.2571411132814	385.8467407226564	-1378.703002929688	584.8912963867189	374.6037292480469	-1393.019287109375	617.8173217773439	445.6832580566407	-1335.610107421875	524.1088256835939	335.0882873535157	-1343.18701171875	579.0744018554689	321.3118896484376	-1347.475830078125	630.6818847656251	369.0015869140626	-1315.676513671875	570.0096435546876	266.4680786132813	-1338.8935546875	270.5169677734376	754.6798706054689	-1734.26025390625	266.0166320800782	750.8459472656251	-1794.744384765625	277.3651428222657	675.4830932617189	-1766.884399414063	288.6630249023438	674.2105712890626	-1827.903686523438	353.7076416015626	274.7099609375001	-1631.653564453125	355.0835571289063	238.1624908447266	-1670.33740234375	364.6061096191407	219.3554992675782	-1625.7568359375	381.6828918457032	186.1116638183594	-1668.91650390625	440.6033935546876	98.85979461669925	-1508.88671875	409.8624267578126	61.7925491333008	-1504.93896484375	468.1920166015626	60.11326599121095	-1508.815795898438	475.1241149902345	50.60681533813478	-1733.90966796875	368.6420288085938	29.40017890930176	-1691.288452148438	
139	0.575	526.3542480468751	1091.504760742188	-1615.4521484375	420.3229370117189	1101.650146484375	-1615.181030273438	583.0655517578126	1016.449890136719	-1816.867797851563	327.7133483886719	1018.531494140625	-1804.312255859375	659.0204467773439	762.8081054687501	-1820.70458984375	644.4562988281251	767.5443725585939	-1879.534912109375	651.3205566406251	690.7984619140626	-1864.52197265625	626.2688598632814	693.2223510742189	-1917.603881835938	623.6004028320314	532.0178833007814	-1620.359130859375	622.5611572265626	470.4336242675782	-1618.481689453125	619.4456176757814	505.2720031738282	-1568.526245117188	606.0922851562501	446.7055053710939	-1567.188598632813	561.1873168945314	539.6296997070314	-1429.97607421875	522.2872314453126	534.4535522460939	-1399.851440429688	585.3928833007814	538.9577026367189	-1387.369506835938	514.7698974609376	464.056365966797	-1412.707641601563	611.7611083984376	479.6307067871095	-1390.00537109375	532.6621704101564	408.1924133300782	-1425.833251953125	530.9243164062501	378.6867065429688	-1404.597900390625	584.3717651367189	368.2212524414063	-1419.09521484375	617.4082031250001	437.4156188964845	-1359.56884765625	523.6754760742189	327.3095703125001	-1370.531005859375	579.1304321289064	313.2888488769532	-1375.495971679688	630.2863769531251	360.2425842285157	-1342.010986328125	569.4825439453126	258.5206909179688	-1368.295776367188	271.0448913574219	755.5592651367189	-1743.42431640625	266.5831604003907	750.5386962890626	-1803.910766601563	277.6911315917969	675.7963256835939	-1774.797241210938	289.5326232910157	673.6207275390626	-1836.10498046875	353.5967712402344	275.9007263183594	-1633.699829101563	354.7579650878907	239.1582183837891	-1671.97705078125	364.3980712890626	220.5545196533204	-1627.226440429688	381.2987365722657	186.8065948486328	-1670.2763671875	439.6770019531251	100.4626541137696	-1509.618530273438	409.374725341797	63.12472534179689	-1505.365112304688	467.7814331054689	62.11018371582033	-1509.041870117188	475.0565185546876	50.73869705200197	-1734.035034179688	368.5725402832032	29.36509704589844	-1691.332763671875	
140	0.5791666666666666	526.8394165039064	1093.657104492188	-1629.572021484375	420.5201721191407	1103.694091796875	-1629.266723632813	583.4940185546876	1019.596862792969	-1830.555419921875	327.7456359863282	1020.328063964844	-1819.3466796875	659.2479248046876	767.0192260742189	-1837.593872070313	644.9515991210939	772.9655761718752	-1896.37744140625	651.8418579101564	695.8833618164064	-1882.859375	626.8520507812501	699.3845825195314	-1935.898193359375	623.6348876953126	530.1961059570314	-1641.789916992188	622.3831787109376	468.5449523925782	-1641.391845703125	619.3363647460939	502.2300415039064	-1590.5908203125	605.5900878906251	443.5986328125001	-1590.699584960938	560.7683715820314	533.3058471679689	-1450.780395507813	521.9135131835939	527.2561645507814	-1420.842895507813	585.0344238281251	531.2095336914064	-1408.302124023438	514.4986572265626	456.9864501953126	-1436.047119140625	611.3530883789064	471.9837951660157	-1412.808837890625	532.0191650390626	401.913543701172	-1450.62158203125	530.2863159179689	371.8489685058594	-1430.361450195313	583.8311157226564	361.6065368652344	-1445.342529296875	617.1308593750001	428.8960876464845	-1383.830322265625	523.1156005859376	319.1455078125001	-1397.924682617188	578.8375854492189	305.8023376464844	-1403.495971679688	629.7609252929689	351.1382141113282	-1368.57421875	568.8565063476564	250.4121704101563	-1397.972900390625	271.6401672363282	756.4960327148439	-1752.540893554688	267.2015075683594	750.4072265625001	-1812.935302734375	278.4046325683594	676.1709594726564	-1782.397583007813	290.0570678710938	672.9774169921876	-1843.659057617188	353.6600036621094	277.3873291015626	-1635.681884765625	354.7121276855469	240.1159057617188	-1673.80615234375	364.3256225585938	222.1621093750001	-1628.841674804688	380.9897766113282	187.7380676269532	-1671.412719726563	438.8165283203126	102.4319763183594	-1510.138061523438	408.8641052246095	64.87790679931642	-1505.80126953125	467.1744079589845	64.19102478027345	-1509.616943359375	475.0466308593751	50.93031692504884	-1734.182006835938	368.5639953613282	29.35845565795899	-1691.360595703125	
141	0.5833333333333334	527.3762207031251	1096.04296875	-1643.798583984375	420.5377502441407	1105.860595703125	-1643.487548828125	583.7449951171876	1022.8486328125	-1844.516357421875	327.9360351562501	1022.472106933594	-1834.57421875	659.4753417968751	771.3758544921877	-1854.124633789063	645.2658081054689	778.303405761719	-1912.791625976563	652.3481445312501	701.2012329101564	-1900.862182617188	627.4377441406251	705.6820068359376	-1953.883056640625	623.4853515625001	528.2352294921876	-1663.021484375	621.8720703125001	466.6117248535157	-1664.27392578125	618.9659423828126	498.9902954101564	-1612.558837890625	605.1034545898439	440.4395751953126	-1614.210571289063	560.3507080078126	526.6313476562501	-1471.594970703125	521.4366455078126	519.5538330078126	-1441.796264648438	584.5676879882814	523.0829467773439	-1429.273559570313	514.0139770507814	449.8399353027345	-1459.228271484375	610.9267578125001	464.0890502929689	-1435.79931640625	531.2529907226564	395.5539550781251	-1475.430541992188	531.0870361328126	363.9826049804688	-1457.15966796875	583.2825317382814	354.8182067871094	-1471.86962890625	616.7038574218751	420.0123291015626	-1408.159301757813	522.6637573242189	310.9355773925782	-1425.8291015625	578.2687377929689	297.6599121093751	-1431.79248046875	629.3242797851564	341.8070678710938	-1395.556030273438	568.2432861328126	242.0855407714844	-1428.031127929688	272.3459777832032	757.6659545898439	-1761.55419921875	267.9200134277344	750.4613647460939	-1821.793579101563	279.0733642578126	676.9406127929689	-1789.94775390625	290.4724426269532	672.4890747070314	-1850.417846679688	353.7305908203126	278.9409179687501	-1637.744262695313	354.6137695312501	241.5771789550782	-1675.50732421875	364.0613098144532	223.9258270263672	-1630.559814453125	380.8612670898438	189.2584686279297	-1672.940307617188	438.0116271972657	104.6598739624024	-1510.956787109375	408.4008789062501	66.91085815429689	-1506.302612304688	466.7702636718751	66.7475051879883	-1510.028564453125	475.0199279785157	50.997127532959	-1734.336669921875	368.5805053710938	29.40094566345216	-1691.432006835938	
